<svg width="150" height="150" viewBox="0 0 150 150" fill="none" xmlns="http://www.w3.org/2000/svg">
<rect width="150" height="150" rx="20" fill="white"/>
<path d="M29.3614 121.716C30.6231 122.692 34.2609 116.402 47.9645 115.564C62.6351 114.661 78.8714 126.33 101.112 126.33C120.83 126.33 131.043 116.678 130.343 115.14C129.873 114.118 122.091 112.239 113.14 107.588C102.374 101.998 91.037 96.399 82.3709 83.8097C76.8177 75.7515 72.8576 66.4684 78.3188 59.1929C83.7708 51.9174 97.6218 55.2789 97.6218 55.2789L78.7424 34.8616L42.798 44.6604L24.6094 90.2563L26.571 113.473L29.3614 121.716Z" fill="url(#paint0_linear_1255_32)"/>
<path d="M70.4359 48.3814C70.4359 48.3814 74.8288 49.7812 80.7136 52.848C90.5032 57.9592 96.4341 65.999 102.485 66.4964C108.766 67.0029 111.98 63.3836 110.607 55.8318C109.327 48.7866 98.9299 40.5165 98.9299 40.5165C98.9299 40.5165 108.425 42.3032 108.425 36.8604C108.425 31.2703 103.304 28.5811 95.2461 25.8091C89.877 23.9672 75.4366 19.8782 56.0784 27.2089C47.753 30.3585 37.5858 36.1789 29.8683 47.3315C19.7748 61.9193 17.7303 80.8907 19.6458 95.2943C21.9666 112.691 29.2052 121.661 29.3802 121.735C29.5552 121.808 30.5038 101.28 38.5988 92.3749C45.4967 84.7863 52.5511 87.8991 60.9317 87.4847C70.8135 86.9966 75.2248 76.7925 67.6822 69.0105C61.208 62.3245 50.479 62.9231 50.479 62.9231C50.479 62.9231 54.0339 61.5048 60.7844 60.897C68.5387 60.1879 70.0675 55.6845 70.6201 53.9991C71.8449 50.2785 70.4359 48.3814 70.4359 48.3814Z" fill="url(#paint1_linear_1255_32)"/>
<path d="M50.9947 48.5566C50.479 45.5174 59.4306 42.773 68.8058 44.2465C83.3935 46.5397 94.9422 59.8473 99.8416 61.7905C107.062 64.6638 109.604 58.7606 105.984 52.3693C102.254 45.7661 92.3819 40.1483 92.7503 37.9657C93.4134 34.0885 103.525 39.9918 104.142 35.6818C104.557 32.8268 97.0051 28.7194 89.8309 26.8867C84.0566 25.4132 71.9278 23.599 55.1666 30.9021C33.3771 40.4154 23.9558 59.3408 22.3994 79.1687C20.9259 97.9744 28.1093 111.991 28.1093 111.991C28.1093 111.991 28.5974 97.956 35.6334 90.2292C40.7722 84.5931 47.3662 82.4749 54.5219 83.8379C66.4574 86.1218 71.6607 77.4926 65.9232 71.2578C62.1658 67.178 57.3492 65.9071 52.3669 65.7414C43.7561 65.4651 39.1238 68.3476 38.8751 67.3714C38.5067 65.8887 43.1759 62.4536 49.0976 59.9855C56.8888 56.7437 66.2916 58.9632 67.7651 52.4429C68.4834 49.2657 66.6876 47.5251 61.5487 47.1475C55.0561 46.6778 51.0316 48.7776 50.9947 48.5566Z" fill="white"/>
<defs>
<linearGradient id="paint0_linear_1255_32" x1="60.0657" y1="-9.92391" x2="116.059" y2="127.112" gradientUnits="userSpaceOnUse">
<stop stop-color="#004A99"/>
<stop offset="1" stop-color="#419DFF"/>
</linearGradient>
<linearGradient id="paint1_linear_1255_32" x1="64.9603" y1="23" x2="64.9603" y2="121.735" gradientUnits="userSpaceOnUse">
<stop stop-color="#007BFF"/>
<stop offset="1" stop-color="#007BFF"/>
</linearGradient>
</defs>
</svg>
