<svg width="150" height="150" viewBox="0 0 150 150" fill="none" xmlns="http://www.w3.org/2000/svg">
<rect width="150" height="150" rx="20" fill="url(#paint0_linear_1255_41)"/>
<path d="M90.0536 44.145C90.0536 44.145 88.1939 43.905 85.2324 44.654C80.6764 45.8074 73.5104 49.3065 66.4877 59.6276C54.9012 76.6586 47.5368 92.8186 47.5368 92.8186C47.5368 92.8186 40.8598 106.172 55.3921 106.172C69.9244 106.172 96.2397 105.205 96.2397 105.205C96.2397 105.205 106.059 105.979 103.113 95.141C100.167 84.3031 93.6867 80.4325 92.7048 81.2066C91.7229 81.9807 86.4206 95.9151 77.9761 96.1087C69.5317 96.3022 68.3534 88.9479 72.6738 81.7872C76.9942 74.6265 83.4748 64.1757 83.4748 64.1757C83.4748 64.1757 89.759 51.596 100.756 61.6597C111.754 71.7235 125.304 99.2052 125.304 99.2052C125.304 99.2052 131.981 109.269 124.322 116.623C116.663 123.977 110.864 123.439 104.291 123.784C98.2919 124.097 37.9141 123.977 37.9141 123.977C37.9141 123.977 15.3301 122.623 23.9709 98.044C32.6118 73.4653 62.2655 32.4362 62.2655 32.4362C62.2655 32.4362 76.7978 16.1794 90.741 35.3392C90.741 35.3392 97.8107 44.4353 90.0536 44.145Z" fill="white"/>
<defs>
<linearGradient id="paint0_linear_1255_41" x1="150" y1="150" x2="-9.33806e-07" y2="10" gradientUnits="userSpaceOnUse">
<stop stop-color="#215A9B"/>
<stop offset="1" stop-color="#122842"/>
</linearGradient>
</defs>
</svg>
